<svg width="122" height="121" viewBox="0 0 122 121" fill="none" xmlns="http://www.w3.org/2000/svg">
<g id="vuesax/bulk/box">
<g id="box">
<path id="Vector" opacity="0.4" d="M106.968 36.2539L61.3911 62.6218L15.8145 36.2539C17.8311 32.5231 20.7553 29.246 24.0324 27.431L50.9549 12.5076C56.7024 9.28098 66.0799 9.28098 71.8274 12.5076L98.7499 27.431C102.027 29.246 104.951 32.5231 106.968 36.2539Z" fill="#D1261F"/>
<path id="Vector_2" opacity="0.6" d="M61.3911 62.6218V110.921C57.6098 110.921 53.8286 110.114 50.9548 108.501L24.0323 93.5777C17.9319 90.1997 12.9407 81.7297 12.9407 74.7722V46.2364C12.9407 43.0097 14.0498 39.4806 15.8144 36.2539L61.3911 62.6218Z" fill="#D1261F"/>
<path id="Vector_3" d="M109.842 46.2364V74.7722C109.842 81.7297 104.85 90.1997 98.7499 93.5777L71.8274 108.501C68.9536 110.114 65.1724 110.921 61.3911 110.921V62.6218L106.968 36.2539C108.732 39.4806 109.842 43.0097 109.842 46.2364Z" fill="#D1261F"/>
</g>
</g>
</svg>
