<svg width="121" height="121" viewBox="0 0 121 121" fill="none" xmlns="http://www.w3.org/2000/svg">
<g id="vuesax/bulk/gps">
<g id="gps">
<path id="Vector" opacity="0.4" d="M60.5 100.619C82.7754 100.619 100.833 82.6589 100.833 60.5045C100.833 38.3501 82.7754 20.3904 60.5 20.3904C38.2245 20.3904 20.1666 38.3501 20.1666 60.5045C20.1666 82.6589 38.2245 100.619 60.5 100.619Z" fill="#D1261F"/>
<path id="Vector_2" d="M60.5 76.1489C69.1875 76.1489 76.23 69.1446 76.23 60.5044C76.23 51.8641 69.1875 44.8599 60.5 44.8599C51.8126 44.8599 44.77 51.8641 44.77 60.5044C44.77 69.1446 51.8126 76.1489 60.5 76.1489Z" fill="#D1261F"/>
<path id="Vector_3" d="M64.2812 10.3618V20.5909H64.2308C63.0208 20.4404 61.7604 20.3903 60.5 20.3903C59.2396 20.3903 57.9792 20.4404 56.7692 20.5909H56.7188V10.3618C56.7188 8.30592 58.4329 6.60107 60.5 6.60107C62.5671 6.60107 64.2812 8.30592 64.2812 10.3618Z" fill="#D1261F"/>
<path id="Vector_4" d="M20.1667 60.5044C20.1667 61.7579 20.2171 63.0616 20.3684 64.2651H10.0834C8.01629 64.2651 6.30212 62.5602 6.30212 60.5044C6.30212 58.4485 8.01629 56.7437 10.0834 56.7437H20.3684C20.2171 57.9471 20.1667 59.2508 20.1667 60.5044Z" fill="#D1261F"/>
<path id="Vector_5" d="M64.2812 100.418V110.647C64.2812 112.703 62.5671 114.408 60.5 114.408C58.4329 114.408 56.7188 112.703 56.7188 110.647V100.418H56.7692C57.9792 100.568 59.2396 100.619 60.5 100.619C61.7604 100.619 63.0208 100.568 64.2308 100.418H64.2812Z" fill="#D1261F"/>
<path id="Vector_6" d="M114.698 60.5044C114.698 62.5602 112.984 64.2651 110.917 64.2651H100.632C100.783 63.0616 100.833 61.7579 100.833 60.5044C100.833 59.2508 100.783 57.9471 100.632 56.7437H110.917C112.984 56.7437 114.698 58.4485 114.698 60.5044Z" fill="#D1261F"/>
</g>
</g>
</svg>
